<svg xmlns="http://www.w3.org/2000/svg" xmlns:xlink="http://www.w3.org/1999/xlink" width="290" zoomAndPan="magnify" viewBox="0 0 217.5 30.000001" height="40" preserveAspectRatio="xMidYMid meet" version="1.0"><defs><g/></defs><g fill="#000000" fill-opacity="1"><g transform="translate(9.382269, 17.622744)"><g><path d="M 9.375 -9.46875 L 15.859375 -16.6875 L 16.890625 -16.6875 L 16.890625 0 L 13.5625 0 L 13.578125 -9.171875 L 9.375 -4.75 L 5.171875 -9.171875 L 5.171875 0 L 1.84375 0 L 1.84375 -16.6875 L 2.890625 -16.6875 Z M 9.375 -9.46875 "/></g></g></g><g fill="#000000" fill-opacity="1"><g transform="translate(28.07731, 17.622744)"><g><path d="M 13.625 -5.71875 C 13.625 -4.601562 13.410156 -3.644531 12.984375 -2.84375 C 12.554688 -2.050781 11.988281 -1.414062 11.28125 -0.9375 C 10.582031 -0.46875 9.8125 -0.15625 8.96875 0 C 8.125 0.164062 7.273438 0.164062 6.421875 0 C 5.578125 -0.15625 4.800781 -0.46875 4.09375 -0.9375 C 3.382812 -1.414062 2.816406 -2.050781 2.390625 -2.84375 C 1.960938 -3.644531 1.75 -4.601562 1.75 -5.71875 L 1.75 -16.4375 L 5.03125 -16.4375 L 5.03125 -5.75 C 5.03125 -5.0625 5.207031 -4.507812 5.5625 -4.09375 C 5.925781 -3.675781 6.375 -3.398438 6.90625 -3.265625 C 7.4375 -3.128906 7.960938 -3.128906 8.484375 -3.265625 C 9.015625 -3.398438 9.457031 -3.675781 9.8125 -4.09375 C 10.175781 -4.507812 10.359375 -5.0625 10.359375 -5.75 L 10.359375 -16.4375 L 13.625 -16.4375 Z M 13.625 -5.71875 "/></g></g></g><g fill="#000000" fill-opacity="1"><g transform="translate(43.450244, 17.622744)"><g><path d="M 1.078125 -1.0625 L 1.5 -4.5 C 2.125 -4.0625 2.742188 -3.742188 3.359375 -3.546875 C 3.984375 -3.359375 4.546875 -3.25 5.046875 -3.21875 C 5.554688 -3.1875 5.9375 -3.175781 6.1875 -3.1875 C 6.675781 -3.21875 7.09375 -3.390625 7.4375 -3.703125 C 7.78125 -4.023438 7.929688 -4.40625 7.890625 -4.84375 C 7.859375 -5.320312 7.679688 -5.679688 7.359375 -5.921875 C 7.035156 -6.171875 6.644531 -6.375 6.1875 -6.53125 C 5.320312 -6.851562 4.519531 -7.222656 3.78125 -7.640625 C 3.039062 -8.066406 2.441406 -8.59375 1.984375 -9.21875 C 1.535156 -9.84375 1.3125 -10.613281 1.3125 -11.53125 C 1.3125 -12.457031 1.503906 -13.289062 1.890625 -14.03125 C 2.285156 -14.769531 2.832031 -15.363281 3.53125 -15.8125 C 4.238281 -16.257812 5.046875 -16.503906 5.953125 -16.546875 C 6.378906 -16.578125 6.898438 -16.5625 7.515625 -16.5 C 8.140625 -16.4375 8.984375 -16.222656 10.046875 -15.859375 L 9.625 -12.6875 C 8.726562 -13.050781 8.007812 -13.257812 7.46875 -13.3125 C 6.9375 -13.375 6.539062 -13.394531 6.28125 -13.375 C 5.695312 -13.34375 5.269531 -13.144531 5 -12.78125 C 4.726562 -12.414062 4.609375 -12 4.640625 -11.53125 C 4.691406 -11.070312 4.890625 -10.722656 5.234375 -10.484375 C 5.585938 -10.253906 6.003906 -10.054688 6.484375 -9.890625 C 7.335938 -9.578125 8.125 -9.191406 8.84375 -8.734375 C 9.5625 -8.285156 10.140625 -7.742188 10.578125 -7.109375 C 11.015625 -6.472656 11.234375 -5.71875 11.234375 -4.84375 C 11.234375 -3.945312 11.035156 -3.128906 10.640625 -2.390625 C 10.242188 -1.648438 9.671875 -1.054688 8.921875 -0.609375 C 8.179688 -0.171875 7.300781 0.078125 6.28125 0.140625 C 5.96875 0.148438 5.546875 0.132812 5.015625 0.09375 C 4.492188 0.0625 3.894531 -0.0390625 3.21875 -0.21875 C 2.539062 -0.394531 1.828125 -0.675781 1.078125 -1.0625 Z M 1.078125 -1.0625 "/></g></g></g><g fill="#000000" fill-opacity="1"><g transform="translate(55.569901, 17.622744)"><g><path d="M 7.84375 0 L 4.546875 0 L 4.546875 -13.140625 L 0.453125 -13.140625 L 0.453125 -16.40625 L 11.921875 -16.40625 L 11.921875 -13.140625 L 7.84375 -13.140625 Z M 7.84375 0 "/></g></g></g><g fill="#000000" fill-opacity="1"><g transform="translate(68.101965, 17.622744)"><g><path d="M 0.375 0 L 7.28125 -17.03125 L 7.625 -17.03125 L 14.546875 0 L 10.84375 0 L 10.1875 -1.765625 L 4.734375 -1.765625 L 4.09375 0 Z M 5.9375 -4.84375 L 8.96875 -4.84375 L 7.46875 -9.125 Z M 5.9375 -4.84375 "/></g></g></g><g fill="#000000" fill-opacity="1"><g transform="translate(83.062587, 17.622744)"><g><path d="M 10.046875 -13.140625 L 5.125 -13.140625 L 5.125 -9.859375 L 9.3125 -9.859375 L 9.3125 -6.578125 L 5.125 -6.578125 L 5.125 0 L 1.84375 0 L 1.84375 -16.4375 L 10.046875 -16.4375 Z M 10.046875 -13.140625 "/></g></g></g><g fill="#000000" fill-opacity="1"><g transform="translate(93.945116, 17.622744)"><g><path d="M 0.375 0 L 7.28125 -17.03125 L 7.625 -17.03125 L 14.546875 0 L 10.84375 0 L 10.1875 -1.765625 L 4.734375 -1.765625 L 4.09375 0 Z M 5.9375 -4.84375 L 8.96875 -4.84375 L 7.46875 -9.125 Z M 5.9375 -4.84375 "/></g></g></g><g fill="#000000" fill-opacity="1"><g transform="translate(108.905737, 17.622744)"><g/></g></g><g fill="#000000" fill-opacity="1"><g transform="translate(115.412293, 17.622744)"><g><path d="M 1.078125 -1.0625 L 1.5 -4.5 C 2.125 -4.0625 2.742188 -3.742188 3.359375 -3.546875 C 3.984375 -3.359375 4.546875 -3.25 5.046875 -3.21875 C 5.554688 -3.1875 5.9375 -3.175781 6.1875 -3.1875 C 6.675781 -3.21875 7.09375 -3.390625 7.4375 -3.703125 C 7.78125 -4.023438 7.929688 -4.40625 7.890625 -4.84375 C 7.859375 -5.320312 7.679688 -5.679688 7.359375 -5.921875 C 7.035156 -6.171875 6.644531 -6.375 6.1875 -6.53125 C 5.320312 -6.851562 4.519531 -7.222656 3.78125 -7.640625 C 3.039062 -8.066406 2.441406 -8.59375 1.984375 -9.21875 C 1.535156 -9.84375 1.3125 -10.613281 1.3125 -11.53125 C 1.3125 -12.457031 1.503906 -13.289062 1.890625 -14.03125 C 2.285156 -14.769531 2.832031 -15.363281 3.53125 -15.8125 C 4.238281 -16.257812 5.046875 -16.503906 5.953125 -16.546875 C 6.378906 -16.578125 6.898438 -16.5625 7.515625 -16.5 C 8.140625 -16.4375 8.984375 -16.222656 10.046875 -15.859375 L 9.625 -12.6875 C 8.726562 -13.050781 8.007812 -13.257812 7.46875 -13.3125 C 6.9375 -13.375 6.539062 -13.394531 6.28125 -13.375 C 5.695312 -13.34375 5.269531 -13.144531 5 -12.78125 C 4.726562 -12.414062 4.609375 -12 4.640625 -11.53125 C 4.691406 -11.070312 4.890625 -10.722656 5.234375 -10.484375 C 5.585938 -10.253906 6.003906 -10.054688 6.484375 -9.890625 C 7.335938 -9.578125 8.125 -9.191406 8.84375 -8.734375 C 9.5625 -8.285156 10.140625 -7.742188 10.578125 -7.109375 C 11.015625 -6.472656 11.234375 -5.71875 11.234375 -4.84375 C 11.234375 -3.945312 11.035156 -3.128906 10.640625 -2.390625 C 10.242188 -1.648438 9.671875 -1.054688 8.921875 -0.609375 C 8.179688 -0.171875 7.300781 0.078125 6.28125 0.140625 C 5.96875 0.148438 5.546875 0.132812 5.015625 0.09375 C 4.492188 0.0625 3.894531 -0.0390625 3.21875 -0.21875 C 2.539062 -0.394531 1.828125 -0.675781 1.078125 -1.0625 Z M 1.078125 -1.0625 "/></g></g></g><g fill="#000000" fill-opacity="1"><g transform="translate(127.53195, 17.622744)"><g><path d="M 0.375 0 L 7.28125 -17.03125 L 7.625 -17.03125 L 14.546875 0 L 10.84375 0 L 10.1875 -1.765625 L 4.734375 -1.765625 L 4.09375 0 Z M 5.9375 -4.84375 L 8.96875 -4.84375 L 7.46875 -9.125 Z M 5.9375 -4.84375 "/></g></g></g><g fill="#000000" fill-opacity="1"><g transform="translate(142.492571, 17.622744)"><g><path d="M 1.84375 0 L 1.84375 -16.4375 L 5.125 -16.4375 L 5.125 -9.890625 L 9.265625 -16.4375 L 13.09375 -16.4375 L 7.765625 -8.3125 L 13.5625 0 L 9.5 0 L 5.125 -6.4375 L 5.125 0 Z M 1.84375 0 "/></g></g></g><g fill="#000000" fill-opacity="1"><g transform="translate(156.330497, 17.622744)"><g><path d="M 0.375 0 L 7.28125 -17.03125 L 7.625 -17.03125 L 14.546875 0 L 10.84375 0 L 10.1875 -1.765625 L 4.734375 -1.765625 L 4.09375 0 Z M 5.9375 -4.84375 L 8.96875 -4.84375 L 7.46875 -9.125 Z M 5.9375 -4.84375 "/></g></g></g><g fill="#000000" fill-opacity="1"><g transform="translate(171.291119, 17.622744)"><g><path d="M 1.84375 -16.4375 L 5.125 -16.4375 L 5.125 -3.28125 L 10.34375 -3.28125 L 10.34375 0 L 1.84375 0 Z M 1.84375 -16.4375 "/></g></g></g><g fill="#000000" fill-opacity="1"><g transform="translate(182.586056, 17.622744)"><g><path d="M 1.84375 -16.4375 L 5.125 -16.4375 L 5.125 -3.28125 L 10.34375 -3.28125 L 10.34375 0 L 1.84375 0 Z M 1.84375 -16.4375 "/></g></g></g><g fill="#000000" fill-opacity="1"><g transform="translate(193.880993, 17.622744)"><g><path d="M 5.125 0 L 1.84375 0 L 1.84375 -16.4375 L 5.125 -16.4375 Z M 5.125 0 "/></g></g></g></svg>